<svg version="1.2" xmlns="http://www.w3.org/2000/svg" viewBox="0 0 360 382" width="23" height="24">
	<title>list-svg</title>
	<style>
		.s0 { fill: #000000 } 
	</style>
	<g id="Layer">
		<path id="Layer" class="s0" d="m79.5 42.9c-10.4 2.6-16.8 10.7-16.8 21.1 0 12.2 9.1 21.3 21.3 21.3 22.6 0 29.7-30.5 9.5-40.6-3.9-1.9-10.2-2.7-14-1.8z"/>
		<path id="Layer" class="s0" d="m139.9 50.2c-7.5 4.3-10.3 15-5.6 21.9 1.2 1.8 3.8 4.4 5.6 5.6 3.4 2.3 3.6 2.3 40.1 2.3 36.5 0 36.7 0 40.1-2.3 10.6-7.1 10.6-20.3 0-27.4-3.4-2.3-3.6-2.3-40-2.3-35.4 0-36.7 0.1-40.2 2.2z"/>
		<path id="Layer" class="s0" d="m73.9 130.3c-5.3 2.8-10.3 9.8-11.3 15.6-2 12.4 8.9 25.1 21.4 25.1 9.1 0 18.8-7.7 20.9-16.7 4.3-17.7-14.8-32.5-31-24z"/>
		<path id="Layer" class="s0" d="m142 134.1c-5.9 2.4-10 8.5-10 14.9 0 5.8 2.6 10.7 7.3 13.8l4.1 2.7h68.6 68.6l4.1-2.7c9.8-6.5 9.8-19.9 0-27.2-2.8-2.1-3.6-2.1-71.5-2.3-44.3-0.1-69.6 0.2-71.2 0.8z"/>
		<path id="Layer" class="s0" d="m76.5 214.5c-5.4 1.9-11.9 9.2-13.4 14.9-3.4 13.5 6.8 26.6 20.7 26.6 10.6 0 18.7-6.4 21.2-16.8 1.7-7.3-0.1-13.3-5.9-19.3-6.5-6.7-13.9-8.4-22.6-5.4z"/>
		<path id="Layer" class="s0" d="m142.7 219.4c-6.9 2.5-10.7 8-10.7 15.6 0 5.3 2.1 9.2 6.7 12.7l3.6 2.8h69.8c69.2 0 69.8 0 72.6-2.1 9.8-7.3 9.8-20.7 0-27.2l-4.1-2.7-67-0.2c-54.8-0.2-67.8 0-70.9 1.1z"/>
		<path id="Layer" class="s0" d="m79.5 298.9c-10.4 2.6-16.8 10.7-16.8 21.1 0 12.2 9.1 21.3 21.3 21.3 22.6 0 29.7-30.5 9.5-40.6-3.9-1.9-10.2-2.7-14-1.8z"/>
		<path id="Layer" class="s0" d="m139.9 306.2c-7.5 4.3-10.3 15-5.6 21.9 1.2 1.8 3.8 4.4 5.6 5.6l3.4 2.3h68.7 68.7l3.4-2.3c10.6-7.1 10.6-20.3 0-27.4l-3.4-2.3h-68.6c-68 0-68.6 0.1-72.2 2.2z"/>
	</g>
</svg>